HIERARCHY
ROOT Hips
{
	OFFSET 0.000000 0.000000 0.000000 
	CHANNELS 6 Xposition Yposition Zposition Yrotation Zrotation Xrotation 
	JOINT Lumbar
	{
		OFFSET 0.000000 0.000000 0.000000 
		CHANNELS 3 Zrotation Xrotation Yrotation
		JOINT Neck
		{
			OFFSET 0.000000 0.445665 0.000000 
			CHANNELS 3 Zrotation Xrotation Yrotation
			End Site
			{
				OFFSET 0.000000 0.227535 0.000000 
			}
		}
		JOINT RightShoulder
		{
			OFFSET 0.019635 0.377685 0.194865 
			CHANNELS 3 Zrotation Xrotation Yrotation
			JOINT RightElbow
			{
				OFFSET 0.000000 -0.243375 0.000000 
				CHANNELS 2 Zrotation Yrotation
				JOINT RightWrist
				{
					OFFSET 0.000000 -0.264825 0.000000 
					CHANNELS 2 Zrotation Xrotation
					End Site
					{
						OFFSET 0.006600 -0.176220 0.000990 
					}
				}
			}
		}
		JOINT LeftShoulder
		{
			OFFSET 0.019635 0.377685 -0.194865 
			CHANNELS 3 Zrotation Xrotation Yrotation
			JOINT LeftElbow
			{
				OFFSET 0.000000 -0.243375 0.000000 
				CHANNELS 2 Zrotation Yrotation
				JOINT LeftWrist
				{
					OFFSET 0.000000 -0.264825 0.000000 
					CHANNELS 2 Zrotation Xrotation
					End Site
					{
						OFFSET 0.006600 -0.176220 -0.000990 
					}
				}
			}
		}
	}
	JOINT RightHip
	{
		OFFSET 0.052140 -0.069960 0.075570 
		CHANNELS 3 Zrotation Xrotation Yrotation
		JOINT RightKnee
		{
			OFFSET 0.000000 -0.402270 0.000000 
			CHANNELS 1 Zrotation
			JOINT RightAnkle
			{
				OFFSET 0.000000 -0.404085 0.000000 
				CHANNELS 3 Zrotation Xrotation Yrotation
				End Site
				{
					OFFSET 0.204105 -0.089430 0.008415 
				}
			}
		}
	}
	JOINT LeftHip
	{
		OFFSET 0.052140 -0.069960 -0.075570 
		CHANNELS 3 Zrotation Xrotation Yrotation
		JOINT LeftKnee
		{
			OFFSET 0.000000 -0.402270 0.000000 
			CHANNELS 1 Zrotation
			JOINT LeftAnkle
			{
				OFFSET 0.000000 -0.404085 0.000000 
				CHANNELS 3 Zrotation Xrotation Yrotation
				End Site
				{
					OFFSET 0.204105 -0.089430 -0.008415 
				}
			}
		}
	}
}
MOTION
Frames: 19
Frame Time: 0.02
0.00437 0.00306 0.00725 81.27536 -25.48753 -11.3227 41.12902 3.0243 5.76811 -20.21686 5.86076 -1.66027 0.95466 -18.8694 4.41198 37.90288 155.24473 21.28348 12.70095 -43.79221 8.03316 11.95444 33.34096 -165.0154 38.86096 -11.87963 31.61903 -1.24039 -13.59448 -21.51548 -7.43883 -3.35483 -3.87811 43.99479 11.13863 1.156 -32.30949 -8.98549 0.97521 2.82124
0.00263 0.00255 0.00942 81.96559 -25.73903 -11.4336 41.2574 2.96419 5.29354 -20.06831 5.7902 -1.66125 -0.32036 -18.28051 3.93928 37.01742 148.88859 19.73316 11.57658 -43.03603 8.74345 10.9873 33.92666 -159.16462 36.73961 -10.8825 31.91245 -1.29456 -13.60236 -21.61331 -7.4577 -3.39277 -3.9016 43.51472 11.5702 1.45889 -32.36564 -9.0183 1.14465 2.90631
0.00088 0.00204 0.01158 82.65451 -25.98997 -11.54444 41.38548 2.90422 4.81938 -19.92006 5.71929 -1.66223 -1.5933 -17.69306 3.46759 36.13478 142.55841 18.18927 10.45678 -42.28052 9.45207 10.02251 34.51139 -153.3312 34.62429 -9.88841 32.20509 -1.34872 -13.61062 -21.7109 -7.47657 -3.43063 -3.92504 43.03586 12.00014 1.76123 -32.42146 -9.0514 1.31382 2.99127
-0.00086 0.00153 0.01375 83.34272 -26.24079 -11.65507 41.51354 2.84431 4.34609 -19.77194 5.64886 -1.6632 -2.8647 -17.1059 2.99619 35.25205 136.22336 16.64412 9.33613 -41.52642 10.16025 9.05828 35.0954 -147.49834 32.50939 -8.89435 32.49769 -1.40271 -13.61854 -21.80844 -7.49538 -3.46846 -3.94847 42.55731 12.43036 2.06317 -32.47748 -9.08418 1.48278 3.0761
-0.0026 0.00101 0.01592 84.03197 -26.49193 -11.7656 41.64173 2.78423 3.87284 -19.62358 5.57897 -1.66418 -4.1375 -16.51749 2.52415 34.36653 129.85864 15.09157 8.21025 -40.77221 10.86992 8.09183 35.68012 -141.64836 30.38866 -7.89725 32.79085 -1.45674 -13.6259 -21.90619 -7.51418 -3.50634 -3.97194 42.07744 12.86225 2.36571 -32.53372 -9.11649 1.65191 3.16099
-0.00435 0.0005 0.01807 84.7202 -26.74235 -11.87703 41.76946 2.72445 3.39682 -19.4756 5.50591 -1.66516 -5.41064 -15.93216 2.05335 33.49001 123.60064 13.56574 7.10317 -40.01402 11.57627 7.13052 36.26486 -135.85009 28.28484 -6.90954 33.08228 -1.51123 -13.63606 -22.00343 -7.5332 -3.54416 -3.99533 41.60061 13.28801 2.66772 -32.58856 -9.15124 1.82114 3.24608
-0.00608 -1e-05 0.02025 85.40955 -26.99434 -11.98673 41.89841 2.66427 2.92679 -19.32701 5.43934 -1.66612 -6.68164 -15.3411 1.58005 32.59625 117.13878 11.98891 5.96017 -39.26482 12.28846 6.16027 36.84874 -129.9545 26.1494 -5.90409 33.37732 -1.5645 -13.64063 -22.10159 -7.55174 -3.58206 -4.01884 41.11878 13.72583 2.96994 -32.64659 -9.18111 1.99002 3.33069
-0.00783 -0.00052 0.02241 86.09818 -27.24415 -12.09766 42.02543 2.60421 2.45144 -19.17897 5.36673 -1.66711 -7.9547 -14.75565 1.11 31.71859 110.85761 10.45711 4.84906 -38.50704 12.99539 5.19764 37.43373 -124.14801 24.04294 -4.91488 33.66818 -1.6193 -13.65023 -22.19891 -7.57077 -3.61989 -4.04225 40.64048 14.15214 3.2729 -32.70091 -9.21537 2.15917 3.41571
-0.00962 -0.00104 0.02455 86.78513 -27.49436 -12.21162 42.15332 2.54528 1.9684 -19.03156 5.28685 -1.66809 -9.23079 -14.17546 0.63992 30.85945 104.82483 8.98796 3.78156 -37.73932 13.69581 4.24627 38.01921 -118.45043 21.97166 -3.94559 33.95746 -1.67442 -13.66657 -22.29525 -7.59021 -3.65767 -4.06553 40.17051 14.56605 3.57326 -32.75373 -9.25551 2.32895 3.50143
-0.01119 -0.00153 0.02681 87.47938 -27.75149 -12.31275 42.28592 2.4828 1.52598 -18.8804 5.24911 -1.669 -10.49109 -13.56019 0.15795 29.89021 97.44555 7.18119 2.47705 -37.03037 14.43346 3.23594 38.59934 -112.12605 19.69715 -2.86184 34.26648 -1.72304 -13.64588 -22.39736 -7.6067 -3.69584 -4.08953 39.66468 15.05636 3.87808 -32.8243 -9.26337 2.496 3.58371
-0.01323 -0.00207 0.02881 88.15961 -27.98809 -12.43797 42.40239 2.42593 1.00032 -18.73724 5.12236 -1.67014 -11.78336 -13.02206 -0.29118 29.15562 92.85411 6.07207 1.66365 -36.19667 15.09258 2.34642 39.19224 -107.12473 17.85217 -2.01958 34.52701 -1.78832 -13.70215 -22.48719 -7.62979 -3.73313 -4.11203 39.22689 15.38225 4.18013 -32.85161 -9.33831 2.66822 3.67286
-0.01643 -0.00274 0.0301 88.78891 -28.2177 -12.65516 42.52637 2.40029 0.22432 -18.61546 4.74984 -1.67131 -13.17549 -12.67158 -0.71383 29.05138 96.43431 7.01956 2.28634 -35.02302 15.5343 1.82067 39.80929 -105.78371 17.19093 -1.84639 34.71085 -1.87539 -13.98221 -22.54385 -7.66803 -3.76824 -4.13017 39.04178 15.27892 4.41591 -32.80777 -9.60773 2.85993 3.78428
-0.02012 -0.00346 0.03114 89.40554 -28.41837 -12.89222 42.62553 2.37765 -0.6304 -18.5018 4.28858 -1.67281 -14.59685 -12.40286 -1.09219 29.18508 102.72426 8.64313 3.38701 -33.72402 15.89738 1.41029 40.44159 -105.7662 16.96021 -1.91456 34.83661 -1.98343 -14.33762 -22.58803 -7.71335 -3.80236 -4.14679 38.91403 15.00642 4.65684 -32.71249 -9.94253 3.0559 3.90198
-0.02366 -0.00417 0.03229 90.03728 -28.59898 -13.10272 42.70099 2.3429 -1.43588 -18.38483 3.86843 -1.67458 -15.99784 -12.11258 -1.44869 29.21896 107.4246 9.86205 4.20966 -32.48035 16.29792 0.92599 41.07353 -105.12296 16.52896 -1.868 34.95079 -2.09769 -14.64978 -22.63763 -7.75746 -3.83685 -4.1643 38.71535 14.79692 4.93748 -32.60863 -10.24069 3.24643 4.01452
-0.02691 -0.00481 0.03345 90.63327 -28.91631 -13.38536 42.92007 2.35224 -2.30178 -18.26634 3.44326 -1.67462 -17.43158 -11.75719 -1.98044 29.21899 113.61341 11.48572 5.28492 -31.2418 16.69173 0.53247 41.67614 -104.58266 16.11852 -1.84293 35.22084 -2.14622 -14.99841 -22.68847 -7.79347 -3.87195 -4.18115 38.70101 14.64555 5.05272 -32.63621 -10.56847 3.45165 4.13671
-0.03087 -0.00561 0.03453 91.296 -28.94631 -13.52484 42.83914 2.27206 -3.05623 -18.15284 3.00945 -1.6783 -18.80055 -11.5561 -2.13908 29.34496 117.38062 12.43642 5.95362 -29.96481 17.08005 -0.02258 42.34551 -104.14433 15.76761 -1.83068 35.1579 -2.33574 -15.29109 -22.73351 -7.84757 -3.9052 -4.19881 38.32282 14.33316 5.4985 -32.38205 -10.84977 3.62743 4.24039
-0.03663 -0.00679 0.03546 92.18637 -28.15326 -13.24411 41.89337 1.93056 -3.52014 -18.05205 2.55737 -1.69238 -20.01196 -11.76764 -1.25659 29.76875 113.47249 11.27583 5.32629 -28.59758 17.47954 -1.05291 43.17722 -103.63602 15.46703 -1.79066 34.14354 -2.91624 -15.38879 -22.76756 -7.95429 -3.93673 -4.22097 36.87062 13.61759 6.98868 -31.32711 -10.98851 3.71943 4.29051
-0.0431 -0.00812 0.03632 93.13656 -27.07915 -12.8227 40.65481 1.50159 -3.86265 -17.95594 2.1027 -1.71004 -21.15105 -12.13085 -0.0037 30.31001 107.09247 9.4305 4.28342 -27.19975 17.87449 -2.24871 44.07851 -103.18937 15.21294 -1.7559 32.80504 -3.63597 -15.42947 -22.79559 -8.07841 -3.96596 -4.24374 35.06124 12.74647 8.78844 -29.99765 -11.07768 3.78184 4.3219
-0.04926 -0.0094 0.03721 94.03333 -26.15748 -12.4784 39.5778 1.12118 -4.23638 -17.85692 1.6598 -1.72579 -22.3056 -12.41973 1.06478 30.79126 102.05811 7.95614 3.46797 -25.82446 18.26749 -3.36929 44.96057 -102.73227 14.94319 -1.7213 31.6448 -4.28834 -15.51347 -22.8254 -8.19133 -3.994 -4.2649 33.45079 11.94577 10.35681 -28.8163 -11.18855 3.85885 4.36254
